<?xml version="1.0" encoding="UTF-8"?>
<svg width="135px" height="27px" viewBox="0 0 135 27" version="1.1" xmlns="http://www.w3.org/2000/svg" xmlns:xlink="http://www.w3.org/1999/xlink">
    <title>Logo/Pd/Orange</title>
    <defs>
        <polygon id="path-1" points="0.687201923 0.257109677 15.8461442 0.257109677 15.8461442 20.9032258 0.687201923 20.9032258"></polygon>
        <polygon id="path-3" points="0 26.601271 134.918654 26.601271 134.918654 0.000174193548 0 0.000174193548"></polygon>
    </defs>
    <g id="Symbols" stroke="none" stroke-width="1" fill="none" fill-rule="evenodd">
        <g id="Footer" transform="translate(-30.000000, -45.000000)">
            <g id="Logo/Pd/Orange">
                <g transform="translate(30.000000, 45.000000)">
                    <g id="Group-16">
                        <path d="M129.848192,18.1372935 C129.848192,16.7463581 131.000019,15.5827452 132.384635,15.5827452 C133.764058,15.5827452 134.918481,16.7463581 134.918481,18.1372935 C134.918481,19.5264871 133.764058,20.6901 132.384635,20.6901 C131.000019,20.6901 129.848192,19.5264871 129.848192,18.1372935" id="Fill-1" fill="#F7951D"></path>
                        <path d="M127.669154,11.8225161 L127.669154,20.6898387 L123.445212,20.6898387 L123.445212,12.4487419 C123.445212,10.6893871 122.342712,9.86806452 120.995308,9.86806452 C119.445404,9.86806452 118.374923,10.7764839 118.374923,12.7892903 L118.374923,20.6898387 L114.146654,20.6898387 L114.146654,6.35109677 L118.374923,6.35109677 L118.374923,7.68367742 C119.133,6.63503226 120.538385,5.95480645 122.403288,5.95480645 C125.249538,5.95480645 127.669154,7.99809677 127.669154,11.8225161" id="Fill-3" fill="#F7951D"></path>
                        <g id="Group-7" transform="translate(95.192308, 5.698045)">
                            <mask id="mask-2" fill="white">
                                <use xlink:href="#path-1"></use>
                            </mask>
                            <g id="Clip-6"></g>
                            <path d="M11.7338365,7.4600129 C11.7338365,5.50120645 10.3189327,4.17036774 8.32075962,4.17036774 C6.32085577,4.17036774 4.91114423,5.50120645 4.91114423,7.4600129 C4.91114423,9.41446452 6.32085577,10.7514 8.32075962,10.7514 C10.3189327,10.7514 11.7338365,9.41446452 11.7338365,7.4600129 L11.7338365,7.4600129 Z M15.8461442,0.654270968 L15.8461442,14.1229161 C15.8461442,18.8879806 12.1535481,20.9034 8.40729808,20.9034 C5.47277885,20.9034 3.022875,19.7937871 1.729125,17.4709161 L5.33518269,15.3684 C5.86652885,16.3630452 6.69210577,17.1564968 8.54749038,17.1564968 C10.5145096,17.1564968 11.7338365,16.1383355 11.7338365,14.1229161 L11.7338365,12.8182065 C10.796625,13.9818194 9.44749038,14.6646581 7.61720192,14.6646581 C3.61739423,14.6646581 0.687201923,11.3706581 0.687201923,7.4600129 C0.687201923,3.54936774 3.61739423,0.257109677 7.61720192,0.257109677 C9.44749038,0.257109677 10.796625,0.938206452 11.7338365,2.10181935 L11.7338365,0.654270968 L15.8461442,0.654270968 Z" id="Fill-5" fill="#F29400" mask="url(#mask-2)"></path>
                        </g>
                        <mask id="mask-4" fill="white">
                            <use xlink:href="#path-3"></use>
                        </mask>
                        <g id="Clip-9"></g>
                        <path d="M89.2514423,20.6900129 L93.4779808,20.6900129 L93.4779808,6.3530129 L89.2514423,6.3530129 L89.2514423,20.6900129 Z M88.8274038,2.55036774 C88.8274038,1.16117419 89.9818269,0.000174193548 91.3638462,0.000174193548 C92.7441346,0.000174193548 93.9020192,1.16117419 93.9020192,2.55036774 C93.9020192,3.93869032 92.7441346,5.10752903 91.3638462,5.10752903 C89.9818269,5.10752903 88.8274038,3.93869032 88.8274038,2.55036774 L88.8274038,2.55036774 Z" id="Fill-8" fill="#F7951D" mask="url(#mask-4)"></path>
                        <path d="M87.1317692,16.2758613 C87.1317692,19.5367645 84.3132115,20.9259581 81.2739808,20.9259581 C78.4554231,20.9259581 76.311,19.8511839 75.21975,17.5544419 L78.8777308,15.4545387 C79.2411923,16.5336677 80.0356154,17.1276677 81.2739808,17.1276677 C82.2856154,17.1276677 82.7892692,16.8176032 82.7892692,16.2497323 C82.7892692,14.6872161 75.8584038,15.5137645 75.8584038,10.6049903 C75.8584038,7.51828065 78.4554231,5.95576452 81.3830192,5.95576452 C83.6676346,5.95576452 85.6909038,6.97392581 86.8825385,8.98847419 L83.2695577,10.9455387 C82.8775385,10.2087 82.3159038,9.70005484 81.3830192,9.70005484 C80.6535,9.70005484 80.2017692,9.98399032 80.2017692,10.4926355 C80.2017692,12.1065387 87.1317692,11.0326355 87.1317692,16.2758613" id="Fill-10" fill="#F7951D" mask="url(#mask-4)"></path>
                        <path d="M70.1590673,11.9646581 C69.7116635,10.3220129 68.4430096,9.72627097 67.1752212,9.72627097 C65.5716635,9.72627097 64.5020481,10.5197226 64.1031058,11.9646581 L70.1590673,11.9646581 Z M67.5672404,17.1286258 C68.7233942,17.1286258 69.7116635,16.6757226 70.2732981,16.0494968 L73.6578173,18.0083032 C72.2732019,19.9340129 70.1919519,20.9269161 67.5153173,20.9269161 C62.695125,20.9269161 59.7069519,17.6677548 59.7069519,13.4400774 C59.7069519,9.21762581 62.751375,5.95410968 67.2029135,5.95410968 C71.3178173,5.95410968 74.3622404,9.1584 74.3622404,13.4400774 C74.3622404,14.0410452 74.3016635,14.6019484 74.1917596,15.1436903 L64.1896442,15.1436903 C64.7209904,16.6173677 66.0147404,17.1286258 67.5672404,17.1286258 L67.5672404,17.1286258 Z" id="Fill-11" fill="#F7951D" mask="url(#mask-4)"></path>
                        <path d="M53.0777596,13.4412968 C53.0777596,11.3161355 51.6697788,9.98355484 49.7235288,9.98355484 C47.7816058,9.98355484 46.373625,11.3161355 46.373625,13.4412968 C46.373625,15.569071 47.7816058,16.9016516 49.7235288,16.9016516 C51.6697788,16.9016516 53.0777596,15.569071 53.0777596,13.4412968 L53.0777596,13.4412968 Z M57.3060288,-0.000348387097 L57.3060288,20.6894903 L53.0777596,20.6894903 L53.0777596,19.1983935 C52.1474712,20.2757806 50.7697788,20.9255226 48.8745865,20.9255226 C45.1871827,20.9255226 42.1453558,17.6663613 42.1453558,13.4412968 C42.1453558,9.21623226 45.1871827,5.95532903 48.8745865,5.95532903 C50.7697788,5.95532903 52.1474712,6.60507097 53.0777596,7.6842 L53.0777596,-0.000348387097 L57.3060288,-0.000348387097 Z" id="Fill-12" fill="#F7951D" mask="url(#mask-4)"></path>
                        <path d="M36.2211923,13.4412968 C36.2211923,11.4284903 34.8132115,10.0932968 32.9785962,10.0932968 C31.1465769,10.0932968 29.736,11.4284903 29.736,13.4412968 C29.736,15.4567161 31.1465769,16.7866839 32.9785962,16.7866839 C34.8132115,16.7866839 36.2211923,15.4567161 36.2211923,13.4412968 M25.5103269,13.4412968 C25.5103269,9.21623226 28.836,5.95532903 32.9785962,5.95532903 C37.1211923,5.95532903 40.4477308,9.21623226 40.4477308,13.4412968 C40.4477308,17.6663613 37.1211923,20.9255226 32.9785962,20.9255226 C28.836,20.9255226 25.5103269,17.6663613 25.5103269,13.4412968" id="Fill-13" fill="#F7951D" mask="url(#mask-4)"></path>
                        <path d="M24.6621635,6.0696 L24.6621635,10.8886645 C22.9114904,10.604729 20.435625,11.3180516 20.435625,14.1216968 L20.435625,20.6896645 L16.2099519,20.6896645 L16.2099519,6.35092258 L20.435625,6.35092258 L20.435625,8.87585806 C20.998125,6.97540645 22.8907212,6.0696 24.6621635,6.0696" id="Fill-14" fill="#F7951D" mask="url(#mask-4)"></path>
                        <path d="M9.85811538,6.8013871 C9.85811538,5.35383871 8.84388462,4.25119355 7.46186538,4.25119355 L4.50830769,4.25119355 L4.50830769,9.35419355 L7.46186538,9.35419355 C8.84388462,9.35419355 9.85811538,8.24893548 9.85811538,6.8013871 M14.3710962,6.8013871 C14.3710962,10.5735484 11.3543654,13.607129 7.46186538,13.607129 L4.50830769,13.607129 L4.50830769,20.6898387 L-0.000346153846,20.6898387 L-0.000346153846,0 L7.46186538,0 C11.3543654,0 14.3710962,3.02922581 14.3710962,6.8013871" id="Fill-15" fill="#F7951D" mask="url(#mask-4)"></path>
                    </g>
                </g>
            </g>
        </g>
    </g>
</svg>